<svg width="699" height="297" viewBox="0 0 699 297" fill="none" xmlns="http://www.w3.org/2000/svg">
<path d="M514.6 0H668.2C684.769 0 698.2 13.4315 698.2 30V267C698.2 283.569 684.769 297 668.2 297H514.6V205.2H586.4C597.446 205.2 606.4 196.246 606.4 185.2V111.8C606.4 100.754 597.446 91.8 586.4 91.8H514.6V0Z" fill="#E4002B"/>
<path d="M108 0H0V267C0 283.569 13.4314 297 30 297H210.6C232.2 297 234.9 278.1 237.6 278.1C240.3 278.1 243 297 264.6 297H445.2C461.769 297 475.2 283.569 475.2 267V0H361.8V174.4C361.8 185.446 352.846 194.4 341.8 194.4H306.2C295.154 194.4 286.2 185.446 286.2 174.4V169.6C286.2 158.554 277.246 149.6 266.2 149.6H203.6C192.554 149.6 183.6 158.554 183.6 169.6V174.4C183.6 185.446 174.646 194.4 163.6 194.4H128C116.954 194.4 108 185.446 108 174.4V0Z" fill="#E4002B"/>
<rect x="151" width="172.8" height="75.6" rx="20" fill="#E4002B"/>
</svg>
