<svg xmlns="http://www.w3.org/2000/svg" viewBox="0 0 24 24"><defs><style>.cls-1,.cls-2{fill:none;}.cls-2{stroke:#323232;stroke-linecap:round;stroke-linejoin:round;stroke-width:1.5px;}</style></defs><g id="Layer_2" data-name="Layer 2"><g id="Icons"><rect class="cls-1" width="24" height="24"/><polyline class="cls-2" points="10.8 21 12 19.8 10.8 18.6"/><path class="cls-2" d="M12,16S6.8,11.85,6.8,8.06A5.13,5.13,0,0,1,12,3a5.13,5.13,0,0,1,5.2,5.06C17.2,11.85,12,16,12,16Z"/><circle class="cls-2" cx="12" cy="8.2" r="1.73"/><path class="cls-2" d="M18,13.7c1.84.64,3,1.57,3,2.6,0,1.47-2.34,2.73-5.65,3.25"/><path class="cls-2" d="M6,13.7c-1.84.64-3,1.57-3,2.6,0,1.93,4,3.5,9,3.5"/></g></g></svg>